<?xml version="1.0" encoding="UTF-8" standalone="no"?>
<!DOCTYPE svg PUBLIC "-//W3C//DTD SVG 1.1//EN"
 "http://www.w3.org/Graphics/SVG/1.1/DTD/svg11.dtd">
<!-- Generated by graphviz version 2.40.1 (20161225.0304)
 -->
<!-- Title: G Pages: 1 -->
<svg width="444pt" height="109pt"
 viewBox="0.00 0.00 444.10 109.30" xmlns="http://www.w3.org/2000/svg" xmlns:xlink="http://www.w3.org/1999/xlink">
<g id="graph0" class="graph" transform="scale(1 1) rotate(0) translate(21.6 87.6986)">
<title>G</title>
<polygon fill="#111111" stroke="transparent" points="-21.6,21.6 -21.6,-87.6986 422.5023,-87.6986 422.5023,21.6 -21.6,21.6"/>
<!-- ../b/ducksB.ts -->
<g id="node1" class="node">
<title>../b/ducksB.ts</title>
<path fill="none" stroke="#cfffac" d="M392.8535,-66.1482C392.8535,-66.1482 308.917,-66.1482 308.917,-66.1482 304.884,-66.1482 300.8511,-62.1152 300.8511,-58.0823 300.8511,-58.0823 300.8511,-50.0164 300.8511,-50.0164 300.8511,-45.9834 304.884,-41.9505 308.917,-41.9505 308.917,-41.9505 392.8535,-41.9505 392.8535,-41.9505 396.8865,-41.9505 400.9194,-45.9834 400.9194,-50.0164 400.9194,-50.0164 400.9194,-58.0823 400.9194,-58.0823 400.9194,-62.1152 396.8865,-66.1482 392.8535,-66.1482"/>
<text text-anchor="middle" x="350.8853" y="-50.8986" font-family="Arial" font-size="14.00" fill="#cfffac">../b/ducksB.ts</text>
</g>
<!-- ../configureStore.ts -->
<g id="node2" class="node">
<title>../configureStore.ts</title>
<path fill="none" stroke="#c6c5fe" d="M256.5547,-64.1482C256.5547,-64.1482 139.6787,-64.1482 139.6787,-64.1482 135.6458,-64.1482 131.6128,-60.1152 131.6128,-56.0823 131.6128,-56.0823 131.6128,-48.0164 131.6128,-48.0164 131.6128,-43.9834 135.6458,-39.9505 139.6787,-39.9505 139.6787,-39.9505 256.5547,-39.9505 256.5547,-39.9505 260.5876,-39.9505 264.6206,-43.9834 264.6206,-48.0164 264.6206,-48.0164 264.6206,-56.0823 264.6206,-56.0823 264.6206,-60.1152 260.5876,-64.1482 256.5547,-64.1482"/>
<text text-anchor="middle" x="198.1167" y="-48.8986" font-family="Arial" font-size="14.00" fill="#c6c5fe">../configureStore.ts</text>
</g>
<!-- ../configureStore.ts&#45;&gt;../b/ducksB.ts -->
<g id="edge1" class="edge">
<title>../configureStore.ts&#45;&gt;../b/ducksB.ts</title>
<path fill="none" stroke="#757575" d="M264.6788,-52.9207C273.2534,-53.033 281.9958,-53.1474 290.4643,-53.2583"/>
<polygon fill="#757575" stroke="#757575" points="290.5834,-56.7601 300.6284,-53.3914 290.6751,-49.7607 290.5834,-56.7601"/>
</g>
<!-- ducksA.ts -->
<g id="node3" class="node">
<title>ducksA.ts</title>
<path fill="none" stroke="#cfffac" d="M381.0094,-24.1482C381.0094,-24.1482 320.7611,-24.1482 320.7611,-24.1482 316.7281,-24.1482 312.6952,-20.1152 312.6952,-16.0823 312.6952,-16.0823 312.6952,-8.0164 312.6952,-8.0164 312.6952,-3.9834 316.7281,.0495 320.7611,.0495 320.7611,.0495 381.0094,.0495 381.0094,.0495 385.0424,.0495 389.0753,-3.9834 389.0753,-8.0164 389.0753,-8.0164 389.0753,-16.0823 389.0753,-16.0823 389.0753,-20.1152 385.0424,-24.1482 381.0094,-24.1482"/>
<text text-anchor="middle" x="350.8853" y="-8.8986" font-family="Arial" font-size="14.00" fill="#cfffac">ducksA.ts</text>
</g>
<!-- ../configureStore.ts&#45;&gt;ducksA.ts -->
<g id="edge2" class="edge">
<title>../configureStore.ts&#45;&gt;ducksA.ts</title>
<path fill="none" stroke="#757575" d="M244.3669,-39.9394C262.8282,-35.1056 284.0865,-29.5395 302.7327,-24.6573"/>
<polygon fill="#757575" stroke="#757575" points="303.7144,-28.0183 312.5017,-22.0994 301.9412,-21.2466 303.7144,-28.0183"/>
</g>
<!-- FeatureA.tsx -->
<g id="node4" class="node">
<title>FeatureA.tsx</title>
<path fill="none" stroke="#c6c5fe" d="M87.4827,-44.1482C87.4827,-44.1482 7.8826,-44.1482 7.8826,-44.1482 3.8496,-44.1482 -.1833,-40.1152 -.1833,-36.0823 -.1833,-36.0823 -.1833,-28.0164 -.1833,-28.0164 -.1833,-23.9834 3.8496,-19.9505 7.8826,-19.9505 7.8826,-19.9505 87.4827,-19.9505 87.4827,-19.9505 91.5156,-19.9505 95.5486,-23.9834 95.5486,-28.0164 95.5486,-28.0164 95.5486,-36.0823 95.5486,-36.0823 95.5486,-40.1152 91.5156,-44.1482 87.4827,-44.1482"/>
<text text-anchor="middle" x="47.6826" y="-28.8986" font-family="Arial" font-size="14.00" fill="#c6c5fe">FeatureA.tsx</text>
</g>
<!-- FeatureA.tsx&#45;&gt;../configureStore.ts -->
<g id="edge3" class="edge">
<title>FeatureA.tsx&#45;&gt;../configureStore.ts</title>
<path fill="none" stroke="#757575" d="M95.6945,-38.4324C103.8526,-39.517 112.5041,-40.6672 121.1861,-41.8215"/>
<polygon fill="#757575" stroke="#757575" points="120.9901,-45.3262 131.3642,-43.1747 121.9127,-38.3872 120.9901,-45.3262"/>
</g>
<!-- FeatureA.tsx&#45;&gt;ducksA.ts -->
<g id="edge4" class="edge">
<title>FeatureA.tsx&#45;&gt;ducksA.ts</title>
<path fill="none" stroke="#757575" d="M95.3916,-28.9023C151.9108,-25.1742 245.5506,-18.9975 302.405,-15.2472"/>
<polygon fill="#757575" stroke="#757575" points="302.8278,-18.727 312.5757,-14.5763 302.367,-11.7422 302.8278,-18.727"/>
</g>
</g>
</svg>
